Coordinates
version=1
nRows=24
nColumns=24
inDegrees=yes

Units are S.I. units (second, meters, Newtons, ...)
Angles are in degrees.

endheader
time	pelvis_tilt	pelvis_list	pelvis_rotation	pelvis_tx	pelvis_ty	pelvis_tz	hip_flexion_r	hip_adduction_r	hip_rotation_r	knee_angle_r	ankle_angle_r	subtalar_angle_r	mtp_angle_r	hip_flexion_l	hip_adduction_l	hip_rotation_l	knee_angle_l	ankle_angle_l	subtalar_angle_l	mtp_angle_l	lumbar_extension	lumbar_bending	lumbar_rotation
      5.08000000	     -8.43760510	     -2.34495535	      4.47013258	     -1.24758761	     -0.03319885	      2.02249866	     32.64310345	      1.30054476	    -15.95243036	     -8.22272618	      9.43844730	     11.82273542	    -36.33308083	     -5.88880870	     -0.37588136	     -7.41060310	    -14.85722813	     12.69073597	      6.60491224	     11.78553756	      3.54099488	      2.39791810	     -8.67232703
      5.09000000	     -8.48939617	     -2.63090180	      4.76851181	     -1.23392472	     -0.03466575	      2.02342783	     32.83612499	      1.40842498	    -16.08128071	     -9.66265266	      9.15020429	     10.25524191	    -39.57351411	     -5.95573937	     -1.05051759	     -7.02670018	    -16.20095994	     12.25256707	      7.26065233	     12.12178839	      3.79763437	      2.64830815	     -8.93400015
      5.10000000	     -8.52870097	     -3.06048794	      4.87877709	     -1.22012760	     -0.03592124	      2.02481862	     32.91059409	      1.84445446	    -15.78800249	    -10.85507063	      7.65064824	      7.99989953	    -40.23407978	     -5.94649455	     -1.92019543	     -6.94787725	    -17.71525438	     11.72376991	      8.11857644	     12.36806950	      4.05787270	      3.05006626	     -9.00383870
      5.11000000	     -8.61715917	     -3.65192133	      4.89645633	     -1.20624979	     -0.03687235	      2.02632215	     32.95968675	      2.48044400	    -15.53105355	    -11.83751032	      5.94656042	      5.93497020	    -42.76705127	     -5.77244347	     -2.97009274	     -7.00252014	    -19.33834509	     10.66947736	      8.82106150	     14.11978438	      4.38970761	      3.63816153	     -9.01284121
      5.12000000	     -8.79101224	     -4.42417268	      4.84742722	     -1.19236786	     -0.03750461	      2.02794524	     33.08011933	      3.32278560	    -15.39027417	    -12.67326537	      3.82216781	      4.11694812	    -43.55572385	     -5.31874056	     -4.23767329	     -7.18960383	    -21.28371714	      9.64188928	      9.69554637	     14.48882806	      4.82411204	      4.41736808	     -8.97415385
      5.13000000	     -8.99148661	     -5.25448805	      4.62560124	     -1.17840723	     -0.03775985	      2.02957357	     33.25342575	      4.27748146	    -15.20020697	    -13.55395573	      2.16071453	      2.92246844	    -45.66919714	     -4.74273125	     -5.55915705	     -7.64872776	    -23.26627573	      7.65370550	     10.14865384	     17.60674006	      5.28792390	      5.31422506	     -8.82960295
      5.14000000	     -9.20488404	     -6.07369759	      4.40075554	     -1.16448502	     -0.03770276	      2.03119435	     33.46738256	      5.23493908	    -14.98711441	    -14.53472987	      0.74839691	      1.93915502	    -46.78017419	     -3.95920914	     -6.89723575	     -8.13859984	    -25.51254309	      5.34664197	     10.52574366	     20.02088064	      5.75407786	      6.20382262	     -8.69581633
      5.15000000	     -9.39726595	     -6.85795069	      4.18495636	     -1.15052982	     -0.03741223	      2.03282980	     33.61843522	      6.18110621	    -14.75670278	    -15.55521697	     -0.15212199	      1.14088017	    -47.89104516	     -3.01846758	     -8.25195345	     -8.68882541	    -27.92421093	      2.41831939	     10.75875543	     23.29788956	      6.19722437	      7.05640096	     -8.58238896
      5.16000000	     -9.55363414	     -7.60120178	      3.98012957	     -1.13657930	     -0.03697570	      2.03452264	     33.61429088	      7.14569479	    -14.40234431	    -16.47557212	     -0.56630669	      0.30015606	    -49.18631935	     -1.93785220	     -9.61040018	     -9.23205391	    -30.46055992	     -1.14670557	     10.68244951	     27.40599894	      6.60194060	      7.85695252	     -8.57590888
      5.17000000	     -9.71591902	     -8.34156295	      3.77493072	     -1.12277754	     -0.03649661	      2.03638274	     33.45770599	      8.18596132	    -13.92670184	    -17.16454490	     -0.67087643	     -0.65994386	    -50.60937256	     -0.65844148	    -10.99624130	     -9.62040648	    -33.12223565	     -5.21578679	     10.29101626	     31.98270165	      6.99130263	      8.62989902	     -8.53613728
      5.18000000	     -9.90727382	     -9.12625167	      3.55272501	     -1.10920213	     -0.03604186	      2.03840691	     33.16366703	      9.34715123	    -13.36305167	    -17.55909753	     -0.61331669	     -1.69528792	    -52.00876632	      0.83135074	    -12.41800004	     -9.72495470	    -35.88152136	     -9.59602050	      9.55579592	     36.67165225	      7.38347067	      9.42696663	     -8.46941659
      5.19000000	    -10.10993035	     -9.98621345	      3.33623233	     -1.09587437	     -0.03564531	      2.04047140	     32.74369258	     10.61408464	    -12.83018950	    -17.68818177	     -0.47008170	     -2.68927371	    -53.25694546	      2.49580423	    -13.88031341	     -9.52051207	    -38.72210763	    -13.97461506	      8.51697792	     40.99293043	      7.76489436	     10.29061773	     -8.41713401
      5.20000000	    -10.31981948	    -10.87665496	      3.10691689	     -1.08283148	     -0.03530967	      2.04250030	     32.24028295	     11.90533092	    -12.47393821	    -17.63215531	     -0.26526480	     -3.49684540	    -54.30899509	      4.29291403	    -15.29209396	     -9.00331707	    -41.61631927	    -18.01790828	      7.23273382	     44.46610017	      8.12177027	     11.18973193	     -8.32266597
      5.21000000	    -10.52680681	    -11.73015380	      2.87270171	     -1.07005378	     -0.03500464	      2.04441183	     31.68616233	     13.11556624	    -12.36028815	    -17.49713006	      0.07906842	     -3.97034947	    -55.21364516	      6.17414655	    -16.56271427	     -8.25592072	    -44.52284324	    -21.43360480	      5.78305869	     46.77356888	      8.43391592	     12.05997634	     -8.17877016
      5.22000000	    -10.68281083	    -12.56864088	      2.72704148	     -1.05744650	     -0.03464073	      2.04604503	     31.04542151	     14.20729476	    -12.62089133	    -17.30637299	      0.55003223	     -4.03985430	    -55.73742300	      8.10227078	    -17.70349053	     -7.27127799	    -47.43791652	    -23.88356858	      4.36338547	     47.39581171	      8.68924067	     12.91922459	     -8.07733363
      5.23000000	    -10.67327582	    -13.15288029	      2.59608794	     -1.04509106	     -0.03387281	      2.04754138	     30.18047623	     15.04105057	    -12.85533274	    -17.10520726	      1.12873685	     -3.88966728	    -56.09955652	      9.82252310	    -18.44301706	     -6.26739923	    -50.11984042	    -25.69391522	      2.72685892	     47.41817043	      8.70784223	     13.53267729	     -7.85473249
      5.24000000	    -10.74156842	    -13.60911376	      2.48126017	     -1.03282777	     -0.03308983	      2.04875255	     29.37059002	     15.62544892	    -13.32067855	    -16.95514157	      2.62631584	     -2.94820634	    -60.50696469	     11.64245484	    -18.92131996	     -5.21300199	    -52.68279444	    -26.45868363	      1.25620715	     46.83281819	      8.80662859	     14.02745284	     -7.61771633
      5.25000000	    -10.69379542	    -13.95637726	      2.46265543	     -1.02079410	     -0.03200376	      2.04994908	     28.36425287	     16.14641869	    -13.56001843	    -16.66636074	      3.43361302	     -2.38747505	    -60.75583370	     13.37564174	    -19.18715865	     -4.06961282	    -55.04254883	    -26.45421629	     -0.04756088	     46.44432710	      8.75769797	     14.38493351	     -7.39520069
      5.26000000	    -10.61753790	    -14.14941390	      2.44549728	     -1.00891025	     -0.03072683	      2.05103661	     27.22496147	     16.55683609	    -13.46275433	    -16.22889113	      4.30242151	     -1.97984056	    -62.01591766	     15.07368085	    -19.18458739	     -2.97364677	    -57.22881030	    -25.65096044	     -1.25173647	     44.96374643	      8.66045121	     14.59237199	     -7.11605045
      5.27000000	    -10.36518244	    -14.30483894	      2.53288993	     -0.99712733	     -0.02921061	      2.05208371	     25.80619942	     16.97304806	    -13.18180693	    -15.59511805	      4.87186710	     -1.85588090	    -62.09984789	     16.59081741	    -19.09235621	     -1.84959686	    -59.09754235	    -24.58562072	     -2.32903418	     44.94897291	      8.38114373	     14.73843555	     -6.88636995
      5.28000000	    -10.14289933	    -14.39288182	      2.57566461	     -0.98539863	     -0.02774286	      2.05313837	     24.36605167	     17.35474694	    -12.76819875	    -14.88364526	      5.37281299	     -1.81918282	    -62.12250704	     18.11549158	    -18.90493620	     -0.86463514	    -60.72165889	    -23.28839937	     -3.36787711	     44.84329668	      8.12804770	     14.82183116	     -6.57148578
      5.29000000	     -9.85736199	    -14.37376977	      2.68623333	     -0.97386888	     -0.02625843	      2.05402957	     22.86999814	     17.59536094	    -12.39677028	    -14.18397613	      5.89446041	     -1.74764132	    -62.21842839	     19.58274975	    -18.53124440	      0.11069552	    -62.14621364	    -21.57262360	     -4.07530328	     43.57261383	      7.79429109	     14.79001580	     -6.34826499
      5.30000000	     -9.61918245	    -14.30038298	      2.77544378	     -0.96242397	     -0.02484796	      2.05499276	     21.40729203	     17.80380543	    -11.94369754	    -13.42956392	      6.25560044	     -1.88257384	    -62.18882390	     21.04821245	    -18.09289526	      0.95921947	    -63.21645786	    -20.15220465	     -4.97693354	     43.59817159	      7.50704273	     14.69197178	     -6.05461927
      5.31000000	     -9.28175818	    -14.15306338	      2.87200545	     -0.95105753	     -0.02338420	      2.05588095	     19.83116965	     17.92720689	    -11.53446306	    -12.67958006	      6.62877594	     -1.91082647	    -62.08455529	     22.32528004	    -17.56128170	      1.68608090	    -64.00278687	    -18.51608811	     -5.65576073	     43.20766065	      7.10529605	     14.53067956	     -5.75004406
